<svg id="evEVRzxHo7q1" xmlns="http://www.w3.org/2000/svg" xmlns:xlink="http://www.w3.org/1999/xlink" viewBox="0 0 1920 1080" shape-rendering="geometricPrecision" text-rendering="geometricPrecision"><ellipse rx="173.643411" ry="128.682171" transform="translate(49.922481 184.496124)" fill="#fff" stroke-width="0"/><ellipse rx="178.294573" ry="134.883721" transform="translate(315.038759 190.697674)" fill="#fff" stroke-width="0"/><ellipse rx="156.589148" ry="130.232558" transform="translate(569.302326 182.945737)" fill="#fff" stroke-width="0"/><ellipse rx="209.302326" ry="133.333333" transform="translate(835.968993 179.844962)" fill="#fff" stroke-width="0"/><ellipse rx="155.813954" ry="128.682171" transform="translate(1115.813954 184.496124)" fill="#fff" stroke-width="0"/><ellipse rx="158.139535" ry="139.534883" transform="translate(1339.844961 186.046512)" fill="#fff" stroke-width="0"/><ellipse rx="128.68217" ry="162.790697" transform="translate(1570.852714 209.302326)" fill="#fff" stroke-width="0"/><ellipse rx="148.837209" ry="110.077519" transform="translate(1798.75969 156.589148)" fill="#fff" stroke-width="0"/><ellipse rx="103.875969" ry="89.922481" transform="translate(54.573643 961.24031)" fill="#fff" stroke-width="0"/><ellipse rx="80.620155" ry="83.720931" transform="translate(186.356589 967.441861)" fill="#fff" stroke-width="0"/><ellipse rx="72.868217" ry="89.922481" transform="translate(305.736434 961.24031)" fill="#fff" stroke-width="0"/><ellipse rx="91.472868" ry="83.720931" transform="translate(448.372093 967.441861)" fill="#fff" stroke-width="0"/><ellipse rx="110.07752" ry="77.51938" transform="translate(615.813954 973.643411)" fill="#fff" stroke-width="0"/><ellipse rx="193.79845" ry="77.51938" transform="translate(851.472869 961.24031)" fill="#fff" stroke-width="0"/><ellipse rx="148.83721" ry="85.271318" transform="translate(1122.790698 968.992248)" fill="#fff" stroke-width="0"/><ellipse rx="130.232558" ry="83.720931" transform="translate(1346.046512 967.441861)" fill="#fff" stroke-width="0"/><ellipse rx="190.697675" ry="77.51938" transform="translate(1570.852714 961.24031)" fill="#fff" stroke-width="0"/><ellipse rx="136.434108" ry="85.271318" transform="translate(1811.162791 968.992248)" fill="#fff" stroke-width="0"/><ellipse rx="114.728682" ry="110.077519" transform="translate(1994.108527 162.790698)" fill="#fff" stroke-width="0"/><ellipse rx="127.131783" ry="86.821706" transform="translate(-108.217054 970.542636)" fill="#d2dbed" stroke-width="0"/><ellipse rx="128.682171" ry="72.868217" transform="translate(1992.55814 993.79845)" fill="#fff" stroke-width="0"/><ellipse rx="192" ry="108" transform="translate(-18.294574 973.643411)" fill="#fff" stroke-width="0"/><rect width="2223.255814" height="889.922481" rx="0" ry="0" transform="translate(-83.410853 117.829458)" fill="#fdfdfd" stroke-width="0"/></svg>
