<svg xmlns="http://www.w3.org/2000/svg" version="1.1" xmlns:xlink="http://www.w3.org/1999/xlink" xmlns:svgjs="http://svgjs.dev/svgjs" viewBox="0 0 800 800" opacity="0.73"><defs><linearGradient gradientTransform="rotate(270)" x1="50%" y1="0%" x2="50%" y2="100%" id="sssquiggly-grad"><stop stop-color="hsl(0, 0%, 0%)" stop-opacity="1" offset="0%"></stop><stop stop-color="hsl(100, 10%, 80%)" stop-opacity="1" offset="100%"></stop></linearGradient></defs><g stroke-width="0.5" stroke="url(#sssquiggly-grad)" fill="none" stroke-linecap="round" transform="matrix(1,0,0,1,-5,-1091.0617389678955)"><path d="M10,10C19.821428571428573,13.125,35.41666666666667,33.333333333333336,57.142857142857146,25C78.86904761904762,16.666666666666664,90.47619047619048,-29.791666666666668,114.28571428571429,-30C138.0952380952381,-30.208333333333332,147.61904761904765,20.666666666666668,171.42857142857144,24C195.23809523809524,27.333333333333332,204.76190476190476,-13.166666666666666,228.57142857142858,-14C252.3809523809524,-14.833333333333334,261.9047619047619,19.166666666666668,285.7142857142857,20C309.5238095238095,20.833333333333332,319.0476190476191,-16.25,342.8571428571429,-10C366.6666666666667,-3.75,376.1904761904762,51.458333333333336,400,50C423.8095238095238,48.541666666666664,433.33333333333337,-17.833333333333332,457.14285714285717,-17C480.95238095238096,-16.166666666666668,490.47619047619054,50.875,514.2857142857143,54C538.0952380952382,57.125,547.6190476190477,0.08333333333333348,571.4285714285714,-2C595.2380952380952,-4.083333333333334,604.7619047619047,41.291666666666664,628.5714285714286,44C652.3809523809524,46.708333333333336,661.9047619047619,11.625,685.7142857142858,11C709.5238095238096,10.375,719.047619047619,41.625,742.8571428571429,41C766.6666666666667,40.375,788.0952380952381,14.875,800,8"></path><path d="M10,10C19.821428571428573,13.125,35.41666666666667,33.333333333333336,57.142857142857146,25C78.86904761904762,16.666666666666664,90.47619047619048,-29.791666666666668,114.28571428571429,-30C138.0952380952381,-30.208333333333332,147.61904761904765,20.666666666666668,171.42857142857144,24C195.23809523809524,27.333333333333332,204.76190476190476,-13.166666666666666,228.57142857142858,-14C252.3809523809524,-14.833333333333334,261.9047619047619,19.166666666666668,285.7142857142857,20C309.5238095238095,20.833333333333332,319.0476190476191,-16.25,342.8571428571429,-10C366.6666666666667,-3.75,376.1904761904762,51.458333333333336,400,50C423.8095238095238,48.541666666666664,433.33333333333337,-17.833333333333332,457.14285714285717,-17C480.95238095238096,-16.166666666666668,490.47619047619054,50.875,514.2857142857143,54C538.0952380952382,57.125,547.6190476190477,0.08333333333333348,571.4285714285714,-2C595.2380952380952,-4.083333333333334,604.7619047619047,41.291666666666664,628.5714285714286,44C652.3809523809524,46.708333333333336,661.9047619047619,11.625,685.7142857142858,11C709.5238095238096,10.375,719.047619047619,41.625,742.8571428571429,41C766.6666666666667,40.375,788.0952380952381,14.875,800,8" transform="matrix(1,0,0,1,0,2958)"></path><path d="M10,10C19.821428571428573,13.125,35.41666666666667,33.333333333333336,57.142857142857146,25C78.86904761904762,16.666666666666664,90.47619047619048,-29.791666666666668,114.28571428571429,-30C138.0952380952381,-30.208333333333332,147.61904761904765,20.666666666666668,171.42857142857144,24C195.23809523809524,27.333333333333332,204.76190476190476,-13.166666666666666,228.57142857142858,-14C252.3809523809524,-14.833333333333334,261.9047619047619,19.166666666666668,285.7142857142857,20C309.5238095238095,20.833333333333332,319.0476190476191,-16.25,342.8571428571429,-10C366.6666666666667,-3.75,376.1904761904762,51.458333333333336,400,50C423.8095238095238,48.541666666666664,433.33333333333337,-17.833333333333332,457.14285714285717,-17C480.95238095238096,-16.166666666666668,490.47619047619054,50.875,514.2857142857143,54C538.0952380952382,57.125,547.6190476190477,0.08333333333333348,571.4285714285714,-2C595.2380952380952,-4.083333333333334,604.7619047619047,41.291666666666664,628.5714285714286,44C652.3809523809524,46.708333333333336,661.9047619047619,11.625,685.7142857142858,11C709.5238095238096,10.375,719.047619047619,41.625,742.8571428571429,41C766.6666666666667,40.375,788.0952380952381,14.875,800,8" transform="matrix(1,0,0,1,0,2907)"></path><path d="M10,10C19.821428571428573,13.125,35.41666666666667,33.333333333333336,57.142857142857146,25C78.86904761904762,16.666666666666664,90.47619047619048,-29.791666666666668,114.28571428571429,-30C138.0952380952381,-30.208333333333332,147.61904761904765,20.666666666666668,171.42857142857144,24C195.23809523809524,27.333333333333332,204.76190476190476,-13.166666666666666,228.57142857142858,-14C252.3809523809524,-14.833333333333334,261.9047619047619,19.166666666666668,285.7142857142857,20C309.5238095238095,20.833333333333332,319.0476190476191,-16.25,342.8571428571429,-10C366.6666666666667,-3.75,376.1904761904762,51.458333333333336,400,50C423.8095238095238,48.541666666666664,433.33333333333337,-17.833333333333332,457.14285714285717,-17C480.95238095238096,-16.166666666666668,490.47619047619054,50.875,514.2857142857143,54C538.0952380952382,57.125,547.6190476190477,0.08333333333333348,571.4285714285714,-2C595.2380952380952,-4.083333333333334,604.7619047619047,41.291666666666664,628.5714285714286,44C652.3809523809524,46.708333333333336,661.9047619047619,11.625,685.7142857142858,11C709.5238095238096,10.375,719.047619047619,41.625,742.8571428571429,41C766.6666666666667,40.375,788.0952380952381,14.875,800,8" transform="matrix(1,0,0,1,0,2856)"></path><path d="M10,10C19.821428571428573,13.125,35.41666666666667,33.333333333333336,57.142857142857146,25C78.86904761904762,16.666666666666664,90.47619047619048,-29.791666666666668,114.28571428571429,-30C138.0952380952381,-30.208333333333332,147.61904761904765,20.666666666666668,171.42857142857144,24C195.23809523809524,27.333333333333332,204.76190476190476,-13.166666666666666,228.57142857142858,-14C252.3809523809524,-14.833333333333334,261.9047619047619,19.166666666666668,285.7142857142857,20C309.5238095238095,20.833333333333332,319.0476190476191,-16.25,342.8571428571429,-10C366.6666666666667,-3.75,376.1904761904762,51.458333333333336,400,50C423.8095238095238,48.541666666666664,433.33333333333337,-17.833333333333332,457.14285714285717,-17C480.95238095238096,-16.166666666666668,490.47619047619054,50.875,514.2857142857143,54C538.0952380952382,57.125,547.6190476190477,0.08333333333333348,571.4285714285714,-2C595.2380952380952,-4.083333333333334,604.7619047619047,41.291666666666664,628.5714285714286,44C652.3809523809524,46.708333333333336,661.9047619047619,11.625,685.7142857142858,11C709.5238095238096,10.375,719.047619047619,41.625,742.8571428571429,41C766.6666666666667,40.375,788.0952380952381,14.875,800,8" transform="matrix(1,0,0,1,0,2805)"></path><path d="M10,10C19.821428571428573,13.125,35.41666666666667,33.333333333333336,57.142857142857146,25C78.86904761904762,16.666666666666664,90.47619047619048,-29.791666666666668,114.28571428571429,-30C138.0952380952381,-30.208333333333332,147.61904761904765,20.666666666666668,171.42857142857144,24C195.23809523809524,27.333333333333332,204.76190476190476,-13.166666666666666,228.57142857142858,-14C252.3809523809524,-14.833333333333334,261.9047619047619,19.166666666666668,285.7142857142857,20C309.5238095238095,20.833333333333332,319.0476190476191,-16.25,342.8571428571429,-10C366.6666666666667,-3.75,376.1904761904762,51.458333333333336,400,50C423.8095238095238,48.541666666666664,433.33333333333337,-17.833333333333332,457.14285714285717,-17C480.95238095238096,-16.166666666666668,490.47619047619054,50.875,514.2857142857143,54C538.0952380952382,57.125,547.6190476190477,0.08333333333333348,571.4285714285714,-2C595.2380952380952,-4.083333333333334,604.7619047619047,41.291666666666664,628.5714285714286,44C652.3809523809524,46.708333333333336,661.9047619047619,11.625,685.7142857142858,11C709.5238095238096,10.375,719.047619047619,41.625,742.8571428571429,41C766.6666666666667,40.375,788.0952380952381,14.875,800,8" transform="matrix(1,0,0,1,0,2754)"></path><path d="M10,10C19.821428571428573,13.125,35.41666666666667,33.333333333333336,57.142857142857146,25C78.86904761904762,16.666666666666664,90.47619047619048,-29.791666666666668,114.28571428571429,-30C138.0952380952381,-30.208333333333332,147.61904761904765,20.666666666666668,171.42857142857144,24C195.23809523809524,27.333333333333332,204.76190476190476,-13.166666666666666,228.57142857142858,-14C252.3809523809524,-14.833333333333334,261.9047619047619,19.166666666666668,285.7142857142857,20C309.5238095238095,20.833333333333332,319.0476190476191,-16.25,342.8571428571429,-10C366.6666666666667,-3.75,376.1904761904762,51.458333333333336,400,50C423.8095238095238,48.541666666666664,433.33333333333337,-17.833333333333332,457.14285714285717,-17C480.95238095238096,-16.166666666666668,490.47619047619054,50.875,514.2857142857143,54C538.0952380952382,57.125,547.6190476190477,0.08333333333333348,571.4285714285714,-2C595.2380952380952,-4.083333333333334,604.7619047619047,41.291666666666664,628.5714285714286,44C652.3809523809524,46.708333333333336,661.9047619047619,11.625,685.7142857142858,11C709.5238095238096,10.375,719.047619047619,41.625,742.8571428571429,41C766.6666666666667,40.375,788.0952380952381,14.875,800,8" transform="matrix(1,0,0,1,0,2703)"></path><path d="M10,10C19.821428571428573,13.125,35.41666666666667,33.333333333333336,57.142857142857146,25C78.86904761904762,16.666666666666664,90.47619047619048,-29.791666666666668,114.28571428571429,-30C138.0952380952381,-30.208333333333332,147.61904761904765,20.666666666666668,171.42857142857144,24C195.23809523809524,27.333333333333332,204.76190476190476,-13.166666666666666,228.57142857142858,-14C252.3809523809524,-14.833333333333334,261.9047619047619,19.166666666666668,285.7142857142857,20C309.5238095238095,20.833333333333332,319.0476190476191,-16.25,342.8571428571429,-10C366.6666666666667,-3.75,376.1904761904762,51.458333333333336,400,50C423.8095238095238,48.541666666666664,433.33333333333337,-17.833333333333332,457.14285714285717,-17C480.95238095238096,-16.166666666666668,490.47619047619054,50.875,514.2857142857143,54C538.0952380952382,57.125,547.6190476190477,0.08333333333333348,571.4285714285714,-2C595.2380952380952,-4.083333333333334,604.7619047619047,41.291666666666664,628.5714285714286,44C652.3809523809524,46.708333333333336,661.9047619047619,11.625,685.7142857142858,11C709.5238095238096,10.375,719.047619047619,41.625,742.8571428571429,41C766.6666666666667,40.375,788.0952380952381,14.875,800,8" transform="matrix(1,0,0,1,0,2652)"></path><path d="M10,10C19.821428571428573,13.125,35.41666666666667,33.333333333333336,57.142857142857146,25C78.86904761904762,16.666666666666664,90.47619047619048,-29.791666666666668,114.28571428571429,-30C138.0952380952381,-30.208333333333332,147.61904761904765,20.666666666666668,171.42857142857144,24C195.23809523809524,27.333333333333332,204.76190476190476,-13.166666666666666,228.57142857142858,-14C252.3809523809524,-14.833333333333334,261.9047619047619,19.166666666666668,285.7142857142857,20C309.5238095238095,20.833333333333332,319.0476190476191,-16.25,342.8571428571429,-10C366.6666666666667,-3.75,376.1904761904762,51.458333333333336,400,50C423.8095238095238,48.541666666666664,433.33333333333337,-17.833333333333332,457.14285714285717,-17C480.95238095238096,-16.166666666666668,490.47619047619054,50.875,514.2857142857143,54C538.0952380952382,57.125,547.6190476190477,0.08333333333333348,571.4285714285714,-2C595.2380952380952,-4.083333333333334,604.7619047619047,41.291666666666664,628.5714285714286,44C652.3809523809524,46.708333333333336,661.9047619047619,11.625,685.7142857142858,11C709.5238095238096,10.375,719.047619047619,41.625,742.8571428571429,41C766.6666666666667,40.375,788.0952380952381,14.875,800,8" transform="matrix(1,0,0,1,0,2601)"></path><path d="M10,10C19.821428571428573,13.125,35.41666666666667,33.333333333333336,57.142857142857146,25C78.86904761904762,16.666666666666664,90.47619047619048,-29.791666666666668,114.28571428571429,-30C138.0952380952381,-30.208333333333332,147.61904761904765,20.666666666666668,171.42857142857144,24C195.23809523809524,27.333333333333332,204.76190476190476,-13.166666666666666,228.57142857142858,-14C252.3809523809524,-14.833333333333334,261.9047619047619,19.166666666666668,285.7142857142857,20C309.5238095238095,20.833333333333332,319.0476190476191,-16.25,342.8571428571429,-10C366.6666666666667,-3.75,376.1904761904762,51.458333333333336,400,50C423.8095238095238,48.541666666666664,433.33333333333337,-17.833333333333332,457.14285714285717,-17C480.95238095238096,-16.166666666666668,490.47619047619054,50.875,514.2857142857143,54C538.0952380952382,57.125,547.6190476190477,0.08333333333333348,571.4285714285714,-2C595.2380952380952,-4.083333333333334,604.7619047619047,41.291666666666664,628.5714285714286,44C652.3809523809524,46.708333333333336,661.9047619047619,11.625,685.7142857142858,11C709.5238095238096,10.375,719.047619047619,41.625,742.8571428571429,41C766.6666666666667,40.375,788.0952380952381,14.875,800,8" transform="matrix(1,0,0,1,0,2550)"></path><path d="M10,10C19.821428571428573,13.125,35.41666666666667,33.333333333333336,57.142857142857146,25C78.86904761904762,16.666666666666664,90.47619047619048,-29.791666666666668,114.28571428571429,-30C138.0952380952381,-30.208333333333332,147.61904761904765,20.666666666666668,171.42857142857144,24C195.23809523809524,27.333333333333332,204.76190476190476,-13.166666666666666,228.57142857142858,-14C252.3809523809524,-14.833333333333334,261.9047619047619,19.166666666666668,285.7142857142857,20C309.5238095238095,20.833333333333332,319.0476190476191,-16.25,342.8571428571429,-10C366.6666666666667,-3.75,376.1904761904762,51.458333333333336,400,50C423.8095238095238,48.541666666666664,433.33333333333337,-17.833333333333332,457.14285714285717,-17C480.95238095238096,-16.166666666666668,490.47619047619054,50.875,514.2857142857143,54C538.0952380952382,57.125,547.6190476190477,0.08333333333333348,571.4285714285714,-2C595.2380952380952,-4.083333333333334,604.7619047619047,41.291666666666664,628.5714285714286,44C652.3809523809524,46.708333333333336,661.9047619047619,11.625,685.7142857142858,11C709.5238095238096,10.375,719.047619047619,41.625,742.8571428571429,41C766.6666666666667,40.375,788.0952380952381,14.875,800,8" transform="matrix(1,0,0,1,0,2499)"></path><path d="M10,10C19.821428571428573,13.125,35.41666666666667,33.333333333333336,57.142857142857146,25C78.86904761904762,16.666666666666664,90.47619047619048,-29.791666666666668,114.28571428571429,-30C138.0952380952381,-30.208333333333332,147.61904761904765,20.666666666666668,171.42857142857144,24C195.23809523809524,27.333333333333332,204.76190476190476,-13.166666666666666,228.57142857142858,-14C252.3809523809524,-14.833333333333334,261.9047619047619,19.166666666666668,285.7142857142857,20C309.5238095238095,20.833333333333332,319.0476190476191,-16.25,342.8571428571429,-10C366.6666666666667,-3.75,376.1904761904762,51.458333333333336,400,50C423.8095238095238,48.541666666666664,433.33333333333337,-17.833333333333332,457.14285714285717,-17C480.95238095238096,-16.166666666666668,490.47619047619054,50.875,514.2857142857143,54C538.0952380952382,57.125,547.6190476190477,0.08333333333333348,571.4285714285714,-2C595.2380952380952,-4.083333333333334,604.7619047619047,41.291666666666664,628.5714285714286,44C652.3809523809524,46.708333333333336,661.9047619047619,11.625,685.7142857142858,11C709.5238095238096,10.375,719.047619047619,41.625,742.8571428571429,41C766.6666666666667,40.375,788.0952380952381,14.875,800,8" transform="matrix(1,0,0,1,0,2448)"></path><path d="M10,10C19.821428571428573,13.125,35.41666666666667,33.333333333333336,57.142857142857146,25C78.86904761904762,16.666666666666664,90.47619047619048,-29.791666666666668,114.28571428571429,-30C138.0952380952381,-30.208333333333332,147.61904761904765,20.666666666666668,171.42857142857144,24C195.23809523809524,27.333333333333332,204.76190476190476,-13.166666666666666,228.57142857142858,-14C252.3809523809524,-14.833333333333334,261.9047619047619,19.166666666666668,285.7142857142857,20C309.5238095238095,20.833333333333332,319.0476190476191,-16.25,342.8571428571429,-10C366.6666666666667,-3.75,376.1904761904762,51.458333333333336,400,50C423.8095238095238,48.541666666666664,433.33333333333337,-17.833333333333332,457.14285714285717,-17C480.95238095238096,-16.166666666666668,490.47619047619054,50.875,514.2857142857143,54C538.0952380952382,57.125,547.6190476190477,0.08333333333333348,571.4285714285714,-2C595.2380952380952,-4.083333333333334,604.7619047619047,41.291666666666664,628.5714285714286,44C652.3809523809524,46.708333333333336,661.9047619047619,11.625,685.7142857142858,11C709.5238095238096,10.375,719.047619047619,41.625,742.8571428571429,41C766.6666666666667,40.375,788.0952380952381,14.875,800,8" transform="matrix(1,0,0,1,0,2397)"></path><path d="M10,10C19.821428571428573,13.125,35.41666666666667,33.333333333333336,57.142857142857146,25C78.86904761904762,16.666666666666664,90.47619047619048,-29.791666666666668,114.28571428571429,-30C138.0952380952381,-30.208333333333332,147.61904761904765,20.666666666666668,171.42857142857144,24C195.23809523809524,27.333333333333332,204.76190476190476,-13.166666666666666,228.57142857142858,-14C252.3809523809524,-14.833333333333334,261.9047619047619,19.166666666666668,285.7142857142857,20C309.5238095238095,20.833333333333332,319.0476190476191,-16.25,342.8571428571429,-10C366.6666666666667,-3.75,376.1904761904762,51.458333333333336,400,50C423.8095238095238,48.541666666666664,433.33333333333337,-17.833333333333332,457.14285714285717,-17C480.95238095238096,-16.166666666666668,490.47619047619054,50.875,514.2857142857143,54C538.0952380952382,57.125,547.6190476190477,0.08333333333333348,571.4285714285714,-2C595.2380952380952,-4.083333333333334,604.7619047619047,41.291666666666664,628.5714285714286,44C652.3809523809524,46.708333333333336,661.9047619047619,11.625,685.7142857142858,11C709.5238095238096,10.375,719.047619047619,41.625,742.8571428571429,41C766.6666666666667,40.375,788.0952380952381,14.875,800,8" transform="matrix(1,0,0,1,0,2346)"></path><path d="M10,10C19.821428571428573,13.125,35.41666666666667,33.333333333333336,57.142857142857146,25C78.86904761904762,16.666666666666664,90.47619047619048,-29.791666666666668,114.28571428571429,-30C138.0952380952381,-30.208333333333332,147.61904761904765,20.666666666666668,171.42857142857144,24C195.23809523809524,27.333333333333332,204.76190476190476,-13.166666666666666,228.57142857142858,-14C252.3809523809524,-14.833333333333334,261.9047619047619,19.166666666666668,285.7142857142857,20C309.5238095238095,20.833333333333332,319.0476190476191,-16.25,342.8571428571429,-10C366.6666666666667,-3.75,376.1904761904762,51.458333333333336,400,50C423.8095238095238,48.541666666666664,433.33333333333337,-17.833333333333332,457.14285714285717,-17C480.95238095238096,-16.166666666666668,490.47619047619054,50.875,514.2857142857143,54C538.0952380952382,57.125,547.6190476190477,0.08333333333333348,571.4285714285714,-2C595.2380952380952,-4.083333333333334,604.7619047619047,41.291666666666664,628.5714285714286,44C652.3809523809524,46.708333333333336,661.9047619047619,11.625,685.7142857142858,11C709.5238095238096,10.375,719.047619047619,41.625,742.8571428571429,41C766.6666666666667,40.375,788.0952380952381,14.875,800,8" transform="matrix(1,0,0,1,0,2295)"></path><path d="M10,10C19.821428571428573,13.125,35.41666666666667,33.333333333333336,57.142857142857146,25C78.86904761904762,16.666666666666664,90.47619047619048,-29.791666666666668,114.28571428571429,-30C138.0952380952381,-30.208333333333332,147.61904761904765,20.666666666666668,171.42857142857144,24C195.23809523809524,27.333333333333332,204.76190476190476,-13.166666666666666,228.57142857142858,-14C252.3809523809524,-14.833333333333334,261.9047619047619,19.166666666666668,285.7142857142857,20C309.5238095238095,20.833333333333332,319.0476190476191,-16.25,342.8571428571429,-10C366.6666666666667,-3.75,376.1904761904762,51.458333333333336,400,50C423.8095238095238,48.541666666666664,433.33333333333337,-17.833333333333332,457.14285714285717,-17C480.95238095238096,-16.166666666666668,490.47619047619054,50.875,514.2857142857143,54C538.0952380952382,57.125,547.6190476190477,0.08333333333333348,571.4285714285714,-2C595.2380952380952,-4.083333333333334,604.7619047619047,41.291666666666664,628.5714285714286,44C652.3809523809524,46.708333333333336,661.9047619047619,11.625,685.7142857142858,11C709.5238095238096,10.375,719.047619047619,41.625,742.8571428571429,41C766.6666666666667,40.375,788.0952380952381,14.875,800,8" transform="matrix(1,0,0,1,0,2244)"></path><path d="M10,10C19.821428571428573,13.125,35.41666666666667,33.333333333333336,57.142857142857146,25C78.86904761904762,16.666666666666664,90.47619047619048,-29.791666666666668,114.28571428571429,-30C138.0952380952381,-30.208333333333332,147.61904761904765,20.666666666666668,171.42857142857144,24C195.23809523809524,27.333333333333332,204.76190476190476,-13.166666666666666,228.57142857142858,-14C252.3809523809524,-14.833333333333334,261.9047619047619,19.166666666666668,285.7142857142857,20C309.5238095238095,20.833333333333332,319.0476190476191,-16.25,342.8571428571429,-10C366.6666666666667,-3.75,376.1904761904762,51.458333333333336,400,50C423.8095238095238,48.541666666666664,433.33333333333337,-17.833333333333332,457.14285714285717,-17C480.95238095238096,-16.166666666666668,490.47619047619054,50.875,514.2857142857143,54C538.0952380952382,57.125,547.6190476190477,0.08333333333333348,571.4285714285714,-2C595.2380952380952,-4.083333333333334,604.7619047619047,41.291666666666664,628.5714285714286,44C652.3809523809524,46.708333333333336,661.9047619047619,11.625,685.7142857142858,11C709.5238095238096,10.375,719.047619047619,41.625,742.8571428571429,41C766.6666666666667,40.375,788.0952380952381,14.875,800,8" transform="matrix(1,0,0,1,0,2193)"></path><path d="M10,10C19.821428571428573,13.125,35.41666666666667,33.333333333333336,57.142857142857146,25C78.86904761904762,16.666666666666664,90.47619047619048,-29.791666666666668,114.28571428571429,-30C138.0952380952381,-30.208333333333332,147.61904761904765,20.666666666666668,171.42857142857144,24C195.23809523809524,27.333333333333332,204.76190476190476,-13.166666666666666,228.57142857142858,-14C252.3809523809524,-14.833333333333334,261.9047619047619,19.166666666666668,285.7142857142857,20C309.5238095238095,20.833333333333332,319.0476190476191,-16.25,342.8571428571429,-10C366.6666666666667,-3.75,376.1904761904762,51.458333333333336,400,50C423.8095238095238,48.541666666666664,433.33333333333337,-17.833333333333332,457.14285714285717,-17C480.95238095238096,-16.166666666666668,490.47619047619054,50.875,514.2857142857143,54C538.0952380952382,57.125,547.6190476190477,0.08333333333333348,571.4285714285714,-2C595.2380952380952,-4.083333333333334,604.7619047619047,41.291666666666664,628.5714285714286,44C652.3809523809524,46.708333333333336,661.9047619047619,11.625,685.7142857142858,11C709.5238095238096,10.375,719.047619047619,41.625,742.8571428571429,41C766.6666666666667,40.375,788.0952380952381,14.875,800,8" transform="matrix(1,0,0,1,0,2142)"></path><path d="M10,10C19.821428571428573,13.125,35.41666666666667,33.333333333333336,57.142857142857146,25C78.86904761904762,16.666666666666664,90.47619047619048,-29.791666666666668,114.28571428571429,-30C138.0952380952381,-30.208333333333332,147.61904761904765,20.666666666666668,171.42857142857144,24C195.23809523809524,27.333333333333332,204.76190476190476,-13.166666666666666,228.57142857142858,-14C252.3809523809524,-14.833333333333334,261.9047619047619,19.166666666666668,285.7142857142857,20C309.5238095238095,20.833333333333332,319.0476190476191,-16.25,342.8571428571429,-10C366.6666666666667,-3.75,376.1904761904762,51.458333333333336,400,50C423.8095238095238,48.541666666666664,433.33333333333337,-17.833333333333332,457.14285714285717,-17C480.95238095238096,-16.166666666666668,490.47619047619054,50.875,514.2857142857143,54C538.0952380952382,57.125,547.6190476190477,0.08333333333333348,571.4285714285714,-2C595.2380952380952,-4.083333333333334,604.7619047619047,41.291666666666664,628.5714285714286,44C652.3809523809524,46.708333333333336,661.9047619047619,11.625,685.7142857142858,11C709.5238095238096,10.375,719.047619047619,41.625,742.8571428571429,41C766.6666666666667,40.375,788.0952380952381,14.875,800,8" transform="matrix(1,0,0,1,0,2091)"></path><path d="M10,10C19.821428571428573,13.125,35.41666666666667,33.333333333333336,57.142857142857146,25C78.86904761904762,16.666666666666664,90.47619047619048,-29.791666666666668,114.28571428571429,-30C138.0952380952381,-30.208333333333332,147.61904761904765,20.666666666666668,171.42857142857144,24C195.23809523809524,27.333333333333332,204.76190476190476,-13.166666666666666,228.57142857142858,-14C252.3809523809524,-14.833333333333334,261.9047619047619,19.166666666666668,285.7142857142857,20C309.5238095238095,20.833333333333332,319.0476190476191,-16.25,342.8571428571429,-10C366.6666666666667,-3.75,376.1904761904762,51.458333333333336,400,50C423.8095238095238,48.541666666666664,433.33333333333337,-17.833333333333332,457.14285714285717,-17C480.95238095238096,-16.166666666666668,490.47619047619054,50.875,514.2857142857143,54C538.0952380952382,57.125,547.6190476190477,0.08333333333333348,571.4285714285714,-2C595.2380952380952,-4.083333333333334,604.7619047619047,41.291666666666664,628.5714285714286,44C652.3809523809524,46.708333333333336,661.9047619047619,11.625,685.7142857142858,11C709.5238095238096,10.375,719.047619047619,41.625,742.8571428571429,41C766.6666666666667,40.375,788.0952380952381,14.875,800,8" transform="matrix(1,0,0,1,0,2040)"></path><path d="M10,10C19.821428571428573,13.125,35.41666666666667,33.333333333333336,57.142857142857146,25C78.86904761904762,16.666666666666664,90.47619047619048,-29.791666666666668,114.28571428571429,-30C138.0952380952381,-30.208333333333332,147.61904761904765,20.666666666666668,171.42857142857144,24C195.23809523809524,27.333333333333332,204.76190476190476,-13.166666666666666,228.57142857142858,-14C252.3809523809524,-14.833333333333334,261.9047619047619,19.166666666666668,285.7142857142857,20C309.5238095238095,20.833333333333332,319.0476190476191,-16.25,342.8571428571429,-10C366.6666666666667,-3.75,376.1904761904762,51.458333333333336,400,50C423.8095238095238,48.541666666666664,433.33333333333337,-17.833333333333332,457.14285714285717,-17C480.95238095238096,-16.166666666666668,490.47619047619054,50.875,514.2857142857143,54C538.0952380952382,57.125,547.6190476190477,0.08333333333333348,571.4285714285714,-2C595.2380952380952,-4.083333333333334,604.7619047619047,41.291666666666664,628.5714285714286,44C652.3809523809524,46.708333333333336,661.9047619047619,11.625,685.7142857142858,11C709.5238095238096,10.375,719.047619047619,41.625,742.8571428571429,41C766.6666666666667,40.375,788.0952380952381,14.875,800,8" transform="matrix(1,0,0,1,0,1989)"></path><path d="M10,10C19.821428571428573,13.125,35.41666666666667,33.333333333333336,57.142857142857146,25C78.86904761904762,16.666666666666664,90.47619047619048,-29.791666666666668,114.28571428571429,-30C138.0952380952381,-30.208333333333332,147.61904761904765,20.666666666666668,171.42857142857144,24C195.23809523809524,27.333333333333332,204.76190476190476,-13.166666666666666,228.57142857142858,-14C252.3809523809524,-14.833333333333334,261.9047619047619,19.166666666666668,285.7142857142857,20C309.5238095238095,20.833333333333332,319.0476190476191,-16.25,342.8571428571429,-10C366.6666666666667,-3.75,376.1904761904762,51.458333333333336,400,50C423.8095238095238,48.541666666666664,433.33333333333337,-17.833333333333332,457.14285714285717,-17C480.95238095238096,-16.166666666666668,490.47619047619054,50.875,514.2857142857143,54C538.0952380952382,57.125,547.6190476190477,0.08333333333333348,571.4285714285714,-2C595.2380952380952,-4.083333333333334,604.7619047619047,41.291666666666664,628.5714285714286,44C652.3809523809524,46.708333333333336,661.9047619047619,11.625,685.7142857142858,11C709.5238095238096,10.375,719.047619047619,41.625,742.8571428571429,41C766.6666666666667,40.375,788.0952380952381,14.875,800,8" transform="matrix(1,0,0,1,0,1938)"></path><path d="M10,10C19.821428571428573,13.125,35.41666666666667,33.333333333333336,57.142857142857146,25C78.86904761904762,16.666666666666664,90.47619047619048,-29.791666666666668,114.28571428571429,-30C138.0952380952381,-30.208333333333332,147.61904761904765,20.666666666666668,171.42857142857144,24C195.23809523809524,27.333333333333332,204.76190476190476,-13.166666666666666,228.57142857142858,-14C252.3809523809524,-14.833333333333334,261.9047619047619,19.166666666666668,285.7142857142857,20C309.5238095238095,20.833333333333332,319.0476190476191,-16.25,342.8571428571429,-10C366.6666666666667,-3.75,376.1904761904762,51.458333333333336,400,50C423.8095238095238,48.541666666666664,433.33333333333337,-17.833333333333332,457.14285714285717,-17C480.95238095238096,-16.166666666666668,490.47619047619054,50.875,514.2857142857143,54C538.0952380952382,57.125,547.6190476190477,0.08333333333333348,571.4285714285714,-2C595.2380952380952,-4.083333333333334,604.7619047619047,41.291666666666664,628.5714285714286,44C652.3809523809524,46.708333333333336,661.9047619047619,11.625,685.7142857142858,11C709.5238095238096,10.375,719.047619047619,41.625,742.8571428571429,41C766.6666666666667,40.375,788.0952380952381,14.875,800,8" transform="matrix(1,0,0,1,0,1887)"></path><path d="M10,10C19.821428571428573,13.125,35.41666666666667,33.333333333333336,57.142857142857146,25C78.86904761904762,16.666666666666664,90.47619047619048,-29.791666666666668,114.28571428571429,-30C138.0952380952381,-30.208333333333332,147.61904761904765,20.666666666666668,171.42857142857144,24C195.23809523809524,27.333333333333332,204.76190476190476,-13.166666666666666,228.57142857142858,-14C252.3809523809524,-14.833333333333334,261.9047619047619,19.166666666666668,285.7142857142857,20C309.5238095238095,20.833333333333332,319.0476190476191,-16.25,342.8571428571429,-10C366.6666666666667,-3.75,376.1904761904762,51.458333333333336,400,50C423.8095238095238,48.541666666666664,433.33333333333337,-17.833333333333332,457.14285714285717,-17C480.95238095238096,-16.166666666666668,490.47619047619054,50.875,514.2857142857143,54C538.0952380952382,57.125,547.6190476190477,0.08333333333333348,571.4285714285714,-2C595.2380952380952,-4.083333333333334,604.7619047619047,41.291666666666664,628.5714285714286,44C652.3809523809524,46.708333333333336,661.9047619047619,11.625,685.7142857142858,11C709.5238095238096,10.375,719.047619047619,41.625,742.8571428571429,41C766.6666666666667,40.375,788.0952380952381,14.875,800,8" transform="matrix(1,0,0,1,0,1836)"></path><path d="M10,10C19.821428571428573,13.125,35.41666666666667,33.333333333333336,57.142857142857146,25C78.86904761904762,16.666666666666664,90.47619047619048,-29.791666666666668,114.28571428571429,-30C138.0952380952381,-30.208333333333332,147.61904761904765,20.666666666666668,171.42857142857144,24C195.23809523809524,27.333333333333332,204.76190476190476,-13.166666666666666,228.57142857142858,-14C252.3809523809524,-14.833333333333334,261.9047619047619,19.166666666666668,285.7142857142857,20C309.5238095238095,20.833333333333332,319.0476190476191,-16.25,342.8571428571429,-10C366.6666666666667,-3.75,376.1904761904762,51.458333333333336,400,50C423.8095238095238,48.541666666666664,433.33333333333337,-17.833333333333332,457.14285714285717,-17C480.95238095238096,-16.166666666666668,490.47619047619054,50.875,514.2857142857143,54C538.0952380952382,57.125,547.6190476190477,0.08333333333333348,571.4285714285714,-2C595.2380952380952,-4.083333333333334,604.7619047619047,41.291666666666664,628.5714285714286,44C652.3809523809524,46.708333333333336,661.9047619047619,11.625,685.7142857142858,11C709.5238095238096,10.375,719.047619047619,41.625,742.8571428571429,41C766.6666666666667,40.375,788.0952380952381,14.875,800,8" transform="matrix(1,0,0,1,0,1785)"></path><path d="M10,10C19.821428571428573,13.125,35.41666666666667,33.333333333333336,57.142857142857146,25C78.86904761904762,16.666666666666664,90.47619047619048,-29.791666666666668,114.28571428571429,-30C138.0952380952381,-30.208333333333332,147.61904761904765,20.666666666666668,171.42857142857144,24C195.23809523809524,27.333333333333332,204.76190476190476,-13.166666666666666,228.57142857142858,-14C252.3809523809524,-14.833333333333334,261.9047619047619,19.166666666666668,285.7142857142857,20C309.5238095238095,20.833333333333332,319.0476190476191,-16.25,342.8571428571429,-10C366.6666666666667,-3.75,376.1904761904762,51.458333333333336,400,50C423.8095238095238,48.541666666666664,433.33333333333337,-17.833333333333332,457.14285714285717,-17C480.95238095238096,-16.166666666666668,490.47619047619054,50.875,514.2857142857143,54C538.0952380952382,57.125,547.6190476190477,0.08333333333333348,571.4285714285714,-2C595.2380952380952,-4.083333333333334,604.7619047619047,41.291666666666664,628.5714285714286,44C652.3809523809524,46.708333333333336,661.9047619047619,11.625,685.7142857142858,11C709.5238095238096,10.375,719.047619047619,41.625,742.8571428571429,41C766.6666666666667,40.375,788.0952380952381,14.875,800,8" transform="matrix(1,0,0,1,0,1734)"></path><path d="M10,10C19.821428571428573,13.125,35.41666666666667,33.333333333333336,57.142857142857146,25C78.86904761904762,16.666666666666664,90.47619047619048,-29.791666666666668,114.28571428571429,-30C138.0952380952381,-30.208333333333332,147.61904761904765,20.666666666666668,171.42857142857144,24C195.23809523809524,27.333333333333332,204.76190476190476,-13.166666666666666,228.57142857142858,-14C252.3809523809524,-14.833333333333334,261.9047619047619,19.166666666666668,285.7142857142857,20C309.5238095238095,20.833333333333332,319.0476190476191,-16.25,342.8571428571429,-10C366.6666666666667,-3.75,376.1904761904762,51.458333333333336,400,50C423.8095238095238,48.541666666666664,433.33333333333337,-17.833333333333332,457.14285714285717,-17C480.95238095238096,-16.166666666666668,490.47619047619054,50.875,514.2857142857143,54C538.0952380952382,57.125,547.6190476190477,0.08333333333333348,571.4285714285714,-2C595.2380952380952,-4.083333333333334,604.7619047619047,41.291666666666664,628.5714285714286,44C652.3809523809524,46.708333333333336,661.9047619047619,11.625,685.7142857142858,11C709.5238095238096,10.375,719.047619047619,41.625,742.8571428571429,41C766.6666666666667,40.375,788.0952380952381,14.875,800,8" transform="matrix(1,0,0,1,0,1683)"></path><path d="M10,10C19.821428571428573,13.125,35.41666666666667,33.333333333333336,57.142857142857146,25C78.86904761904762,16.666666666666664,90.47619047619048,-29.791666666666668,114.28571428571429,-30C138.0952380952381,-30.208333333333332,147.61904761904765,20.666666666666668,171.42857142857144,24C195.23809523809524,27.333333333333332,204.76190476190476,-13.166666666666666,228.57142857142858,-14C252.3809523809524,-14.833333333333334,261.9047619047619,19.166666666666668,285.7142857142857,20C309.5238095238095,20.833333333333332,319.0476190476191,-16.25,342.8571428571429,-10C366.6666666666667,-3.75,376.1904761904762,51.458333333333336,400,50C423.8095238095238,48.541666666666664,433.33333333333337,-17.833333333333332,457.14285714285717,-17C480.95238095238096,-16.166666666666668,490.47619047619054,50.875,514.2857142857143,54C538.0952380952382,57.125,547.6190476190477,0.08333333333333348,571.4285714285714,-2C595.2380952380952,-4.083333333333334,604.7619047619047,41.291666666666664,628.5714285714286,44C652.3809523809524,46.708333333333336,661.9047619047619,11.625,685.7142857142858,11C709.5238095238096,10.375,719.047619047619,41.625,742.8571428571429,41C766.6666666666667,40.375,788.0952380952381,14.875,800,8" transform="matrix(1,0,0,1,0,1632)"></path><path d="M10,10C19.821428571428573,13.125,35.41666666666667,33.333333333333336,57.142857142857146,25C78.86904761904762,16.666666666666664,90.47619047619048,-29.791666666666668,114.28571428571429,-30C138.0952380952381,-30.208333333333332,147.61904761904765,20.666666666666668,171.42857142857144,24C195.23809523809524,27.333333333333332,204.76190476190476,-13.166666666666666,228.57142857142858,-14C252.3809523809524,-14.833333333333334,261.9047619047619,19.166666666666668,285.7142857142857,20C309.5238095238095,20.833333333333332,319.0476190476191,-16.25,342.8571428571429,-10C366.6666666666667,-3.75,376.1904761904762,51.458333333333336,400,50C423.8095238095238,48.541666666666664,433.33333333333337,-17.833333333333332,457.14285714285717,-17C480.95238095238096,-16.166666666666668,490.47619047619054,50.875,514.2857142857143,54C538.0952380952382,57.125,547.6190476190477,0.08333333333333348,571.4285714285714,-2C595.2380952380952,-4.083333333333334,604.7619047619047,41.291666666666664,628.5714285714286,44C652.3809523809524,46.708333333333336,661.9047619047619,11.625,685.7142857142858,11C709.5238095238096,10.375,719.047619047619,41.625,742.8571428571429,41C766.6666666666667,40.375,788.0952380952381,14.875,800,8" transform="matrix(1,0,0,1,0,1581)"></path><path d="M10,10C19.821428571428573,13.125,35.41666666666667,33.333333333333336,57.142857142857146,25C78.86904761904762,16.666666666666664,90.47619047619048,-29.791666666666668,114.28571428571429,-30C138.0952380952381,-30.208333333333332,147.61904761904765,20.666666666666668,171.42857142857144,24C195.23809523809524,27.333333333333332,204.76190476190476,-13.166666666666666,228.57142857142858,-14C252.3809523809524,-14.833333333333334,261.9047619047619,19.166666666666668,285.7142857142857,20C309.5238095238095,20.833333333333332,319.0476190476191,-16.25,342.8571428571429,-10C366.6666666666667,-3.75,376.1904761904762,51.458333333333336,400,50C423.8095238095238,48.541666666666664,433.33333333333337,-17.833333333333332,457.14285714285717,-17C480.95238095238096,-16.166666666666668,490.47619047619054,50.875,514.2857142857143,54C538.0952380952382,57.125,547.6190476190477,0.08333333333333348,571.4285714285714,-2C595.2380952380952,-4.083333333333334,604.7619047619047,41.291666666666664,628.5714285714286,44C652.3809523809524,46.708333333333336,661.9047619047619,11.625,685.7142857142858,11C709.5238095238096,10.375,719.047619047619,41.625,742.8571428571429,41C766.6666666666667,40.375,788.0952380952381,14.875,800,8" transform="matrix(1,0,0,1,0,1530)"></path><path d="M10,10C19.821428571428573,13.125,35.41666666666667,33.333333333333336,57.142857142857146,25C78.86904761904762,16.666666666666664,90.47619047619048,-29.791666666666668,114.28571428571429,-30C138.0952380952381,-30.208333333333332,147.61904761904765,20.666666666666668,171.42857142857144,24C195.23809523809524,27.333333333333332,204.76190476190476,-13.166666666666666,228.57142857142858,-14C252.3809523809524,-14.833333333333334,261.9047619047619,19.166666666666668,285.7142857142857,20C309.5238095238095,20.833333333333332,319.0476190476191,-16.25,342.8571428571429,-10C366.6666666666667,-3.75,376.1904761904762,51.458333333333336,400,50C423.8095238095238,48.541666666666664,433.33333333333337,-17.833333333333332,457.14285714285717,-17C480.95238095238096,-16.166666666666668,490.47619047619054,50.875,514.2857142857143,54C538.0952380952382,57.125,547.6190476190477,0.08333333333333348,571.4285714285714,-2C595.2380952380952,-4.083333333333334,604.7619047619047,41.291666666666664,628.5714285714286,44C652.3809523809524,46.708333333333336,661.9047619047619,11.625,685.7142857142858,11C709.5238095238096,10.375,719.047619047619,41.625,742.8571428571429,41C766.6666666666667,40.375,788.0952380952381,14.875,800,8" transform="matrix(1,0,0,1,0,1479)"></path><path d="M10,10C19.821428571428573,13.125,35.41666666666667,33.333333333333336,57.142857142857146,25C78.86904761904762,16.666666666666664,90.47619047619048,-29.791666666666668,114.28571428571429,-30C138.0952380952381,-30.208333333333332,147.61904761904765,20.666666666666668,171.42857142857144,24C195.23809523809524,27.333333333333332,204.76190476190476,-13.166666666666666,228.57142857142858,-14C252.3809523809524,-14.833333333333334,261.9047619047619,19.166666666666668,285.7142857142857,20C309.5238095238095,20.833333333333332,319.0476190476191,-16.25,342.8571428571429,-10C366.6666666666667,-3.75,376.1904761904762,51.458333333333336,400,50C423.8095238095238,48.541666666666664,433.33333333333337,-17.833333333333332,457.14285714285717,-17C480.95238095238096,-16.166666666666668,490.47619047619054,50.875,514.2857142857143,54C538.0952380952382,57.125,547.6190476190477,0.08333333333333348,571.4285714285714,-2C595.2380952380952,-4.083333333333334,604.7619047619047,41.291666666666664,628.5714285714286,44C652.3809523809524,46.708333333333336,661.9047619047619,11.625,685.7142857142858,11C709.5238095238096,10.375,719.047619047619,41.625,742.8571428571429,41C766.6666666666667,40.375,788.0952380952381,14.875,800,8" transform="matrix(1,0,0,1,0,1428)"></path><path d="M10,10C19.821428571428573,13.125,35.41666666666667,33.333333333333336,57.142857142857146,25C78.86904761904762,16.666666666666664,90.47619047619048,-29.791666666666668,114.28571428571429,-30C138.0952380952381,-30.208333333333332,147.61904761904765,20.666666666666668,171.42857142857144,24C195.23809523809524,27.333333333333332,204.76190476190476,-13.166666666666666,228.57142857142858,-14C252.3809523809524,-14.833333333333334,261.9047619047619,19.166666666666668,285.7142857142857,20C309.5238095238095,20.833333333333332,319.0476190476191,-16.25,342.8571428571429,-10C366.6666666666667,-3.75,376.1904761904762,51.458333333333336,400,50C423.8095238095238,48.541666666666664,433.33333333333337,-17.833333333333332,457.14285714285717,-17C480.95238095238096,-16.166666666666668,490.47619047619054,50.875,514.2857142857143,54C538.0952380952382,57.125,547.6190476190477,0.08333333333333348,571.4285714285714,-2C595.2380952380952,-4.083333333333334,604.7619047619047,41.291666666666664,628.5714285714286,44C652.3809523809524,46.708333333333336,661.9047619047619,11.625,685.7142857142858,11C709.5238095238096,10.375,719.047619047619,41.625,742.8571428571429,41C766.6666666666667,40.375,788.0952380952381,14.875,800,8" transform="matrix(1,0,0,1,0,1377)"></path><path d="M10,10C19.821428571428573,13.125,35.41666666666667,33.333333333333336,57.142857142857146,25C78.86904761904762,16.666666666666664,90.47619047619048,-29.791666666666668,114.28571428571429,-30C138.0952380952381,-30.208333333333332,147.61904761904765,20.666666666666668,171.42857142857144,24C195.23809523809524,27.333333333333332,204.76190476190476,-13.166666666666666,228.57142857142858,-14C252.3809523809524,-14.833333333333334,261.9047619047619,19.166666666666668,285.7142857142857,20C309.5238095238095,20.833333333333332,319.0476190476191,-16.25,342.8571428571429,-10C366.6666666666667,-3.75,376.1904761904762,51.458333333333336,400,50C423.8095238095238,48.541666666666664,433.33333333333337,-17.833333333333332,457.14285714285717,-17C480.95238095238096,-16.166666666666668,490.47619047619054,50.875,514.2857142857143,54C538.0952380952382,57.125,547.6190476190477,0.08333333333333348,571.4285714285714,-2C595.2380952380952,-4.083333333333334,604.7619047619047,41.291666666666664,628.5714285714286,44C652.3809523809524,46.708333333333336,661.9047619047619,11.625,685.7142857142858,11C709.5238095238096,10.375,719.047619047619,41.625,742.8571428571429,41C766.6666666666667,40.375,788.0952380952381,14.875,800,8" transform="matrix(1,0,0,1,0,1326)"></path><path d="M10,10C19.821428571428573,13.125,35.41666666666667,33.333333333333336,57.142857142857146,25C78.86904761904762,16.666666666666664,90.47619047619048,-29.791666666666668,114.28571428571429,-30C138.0952380952381,-30.208333333333332,147.61904761904765,20.666666666666668,171.42857142857144,24C195.23809523809524,27.333333333333332,204.76190476190476,-13.166666666666666,228.57142857142858,-14C252.3809523809524,-14.833333333333334,261.9047619047619,19.166666666666668,285.7142857142857,20C309.5238095238095,20.833333333333332,319.0476190476191,-16.25,342.8571428571429,-10C366.6666666666667,-3.75,376.1904761904762,51.458333333333336,400,50C423.8095238095238,48.541666666666664,433.33333333333337,-17.833333333333332,457.14285714285717,-17C480.95238095238096,-16.166666666666668,490.47619047619054,50.875,514.2857142857143,54C538.0952380952382,57.125,547.6190476190477,0.08333333333333348,571.4285714285714,-2C595.2380952380952,-4.083333333333334,604.7619047619047,41.291666666666664,628.5714285714286,44C652.3809523809524,46.708333333333336,661.9047619047619,11.625,685.7142857142858,11C709.5238095238096,10.375,719.047619047619,41.625,742.8571428571429,41C766.6666666666667,40.375,788.0952380952381,14.875,800,8" transform="matrix(1,0,0,1,0,1275)"></path><path d="M10,10C19.821428571428573,13.125,35.41666666666667,33.333333333333336,57.142857142857146,25C78.86904761904762,16.666666666666664,90.47619047619048,-29.791666666666668,114.28571428571429,-30C138.0952380952381,-30.208333333333332,147.61904761904765,20.666666666666668,171.42857142857144,24C195.23809523809524,27.333333333333332,204.76190476190476,-13.166666666666666,228.57142857142858,-14C252.3809523809524,-14.833333333333334,261.9047619047619,19.166666666666668,285.7142857142857,20C309.5238095238095,20.833333333333332,319.0476190476191,-16.25,342.8571428571429,-10C366.6666666666667,-3.75,376.1904761904762,51.458333333333336,400,50C423.8095238095238,48.541666666666664,433.33333333333337,-17.833333333333332,457.14285714285717,-17C480.95238095238096,-16.166666666666668,490.47619047619054,50.875,514.2857142857143,54C538.0952380952382,57.125,547.6190476190477,0.08333333333333348,571.4285714285714,-2C595.2380952380952,-4.083333333333334,604.7619047619047,41.291666666666664,628.5714285714286,44C652.3809523809524,46.708333333333336,661.9047619047619,11.625,685.7142857142858,11C709.5238095238096,10.375,719.047619047619,41.625,742.8571428571429,41C766.6666666666667,40.375,788.0952380952381,14.875,800,8" transform="matrix(1,0,0,1,0,1224)"></path><path d="M10,10C19.821428571428573,13.125,35.41666666666667,33.333333333333336,57.142857142857146,25C78.86904761904762,16.666666666666664,90.47619047619048,-29.791666666666668,114.28571428571429,-30C138.0952380952381,-30.208333333333332,147.61904761904765,20.666666666666668,171.42857142857144,24C195.23809523809524,27.333333333333332,204.76190476190476,-13.166666666666666,228.57142857142858,-14C252.3809523809524,-14.833333333333334,261.9047619047619,19.166666666666668,285.7142857142857,20C309.5238095238095,20.833333333333332,319.0476190476191,-16.25,342.8571428571429,-10C366.6666666666667,-3.75,376.1904761904762,51.458333333333336,400,50C423.8095238095238,48.541666666666664,433.33333333333337,-17.833333333333332,457.14285714285717,-17C480.95238095238096,-16.166666666666668,490.47619047619054,50.875,514.2857142857143,54C538.0952380952382,57.125,547.6190476190477,0.08333333333333348,571.4285714285714,-2C595.2380952380952,-4.083333333333334,604.7619047619047,41.291666666666664,628.5714285714286,44C652.3809523809524,46.708333333333336,661.9047619047619,11.625,685.7142857142858,11C709.5238095238096,10.375,719.047619047619,41.625,742.8571428571429,41C766.6666666666667,40.375,788.0952380952381,14.875,800,8" transform="matrix(1,0,0,1,0,1173)"></path><path d="M10,10C19.821428571428573,13.125,35.41666666666667,33.333333333333336,57.142857142857146,25C78.86904761904762,16.666666666666664,90.47619047619048,-29.791666666666668,114.28571428571429,-30C138.0952380952381,-30.208333333333332,147.61904761904765,20.666666666666668,171.42857142857144,24C195.23809523809524,27.333333333333332,204.76190476190476,-13.166666666666666,228.57142857142858,-14C252.3809523809524,-14.833333333333334,261.9047619047619,19.166666666666668,285.7142857142857,20C309.5238095238095,20.833333333333332,319.0476190476191,-16.25,342.8571428571429,-10C366.6666666666667,-3.75,376.1904761904762,51.458333333333336,400,50C423.8095238095238,48.541666666666664,433.33333333333337,-17.833333333333332,457.14285714285717,-17C480.95238095238096,-16.166666666666668,490.47619047619054,50.875,514.2857142857143,54C538.0952380952382,57.125,547.6190476190477,0.08333333333333348,571.4285714285714,-2C595.2380952380952,-4.083333333333334,604.7619047619047,41.291666666666664,628.5714285714286,44C652.3809523809524,46.708333333333336,661.9047619047619,11.625,685.7142857142858,11C709.5238095238096,10.375,719.047619047619,41.625,742.8571428571429,41C766.6666666666667,40.375,788.0952380952381,14.875,800,8" transform="matrix(1,0,0,1,0,1122)"></path><path d="M10,10C19.821428571428573,13.125,35.41666666666667,33.333333333333336,57.142857142857146,25C78.86904761904762,16.666666666666664,90.47619047619048,-29.791666666666668,114.28571428571429,-30C138.0952380952381,-30.208333333333332,147.61904761904765,20.666666666666668,171.42857142857144,24C195.23809523809524,27.333333333333332,204.76190476190476,-13.166666666666666,228.57142857142858,-14C252.3809523809524,-14.833333333333334,261.9047619047619,19.166666666666668,285.7142857142857,20C309.5238095238095,20.833333333333332,319.0476190476191,-16.25,342.8571428571429,-10C366.6666666666667,-3.75,376.1904761904762,51.458333333333336,400,50C423.8095238095238,48.541666666666664,433.33333333333337,-17.833333333333332,457.14285714285717,-17C480.95238095238096,-16.166666666666668,490.47619047619054,50.875,514.2857142857143,54C538.0952380952382,57.125,547.6190476190477,0.08333333333333348,571.4285714285714,-2C595.2380952380952,-4.083333333333334,604.7619047619047,41.291666666666664,628.5714285714286,44C652.3809523809524,46.708333333333336,661.9047619047619,11.625,685.7142857142858,11C709.5238095238096,10.375,719.047619047619,41.625,742.8571428571429,41C766.6666666666667,40.375,788.0952380952381,14.875,800,8" transform="matrix(1,0,0,1,0,1071)"></path><path d="M10,10C19.821428571428573,13.125,35.41666666666667,33.333333333333336,57.142857142857146,25C78.86904761904762,16.666666666666664,90.47619047619048,-29.791666666666668,114.28571428571429,-30C138.0952380952381,-30.208333333333332,147.61904761904765,20.666666666666668,171.42857142857144,24C195.23809523809524,27.333333333333332,204.76190476190476,-13.166666666666666,228.57142857142858,-14C252.3809523809524,-14.833333333333334,261.9047619047619,19.166666666666668,285.7142857142857,20C309.5238095238095,20.833333333333332,319.0476190476191,-16.25,342.8571428571429,-10C366.6666666666667,-3.75,376.1904761904762,51.458333333333336,400,50C423.8095238095238,48.541666666666664,433.33333333333337,-17.833333333333332,457.14285714285717,-17C480.95238095238096,-16.166666666666668,490.47619047619054,50.875,514.2857142857143,54C538.0952380952382,57.125,547.6190476190477,0.08333333333333348,571.4285714285714,-2C595.2380952380952,-4.083333333333334,604.7619047619047,41.291666666666664,628.5714285714286,44C652.3809523809524,46.708333333333336,661.9047619047619,11.625,685.7142857142858,11C709.5238095238096,10.375,719.047619047619,41.625,742.8571428571429,41C766.6666666666667,40.375,788.0952380952381,14.875,800,8" transform="matrix(1,0,0,1,0,1020)"></path><path d="M10,10C19.821428571428573,13.125,35.41666666666667,33.333333333333336,57.142857142857146,25C78.86904761904762,16.666666666666664,90.47619047619048,-29.791666666666668,114.28571428571429,-30C138.0952380952381,-30.208333333333332,147.61904761904765,20.666666666666668,171.42857142857144,24C195.23809523809524,27.333333333333332,204.76190476190476,-13.166666666666666,228.57142857142858,-14C252.3809523809524,-14.833333333333334,261.9047619047619,19.166666666666668,285.7142857142857,20C309.5238095238095,20.833333333333332,319.0476190476191,-16.25,342.8571428571429,-10C366.6666666666667,-3.75,376.1904761904762,51.458333333333336,400,50C423.8095238095238,48.541666666666664,433.33333333333337,-17.833333333333332,457.14285714285717,-17C480.95238095238096,-16.166666666666668,490.47619047619054,50.875,514.2857142857143,54C538.0952380952382,57.125,547.6190476190477,0.08333333333333348,571.4285714285714,-2C595.2380952380952,-4.083333333333334,604.7619047619047,41.291666666666664,628.5714285714286,44C652.3809523809524,46.708333333333336,661.9047619047619,11.625,685.7142857142858,11C709.5238095238096,10.375,719.047619047619,41.625,742.8571428571429,41C766.6666666666667,40.375,788.0952380952381,14.875,800,8" transform="matrix(1,0,0,1,0,969)"></path><path d="M10,10C19.821428571428573,13.125,35.41666666666667,33.333333333333336,57.142857142857146,25C78.86904761904762,16.666666666666664,90.47619047619048,-29.791666666666668,114.28571428571429,-30C138.0952380952381,-30.208333333333332,147.61904761904765,20.666666666666668,171.42857142857144,24C195.23809523809524,27.333333333333332,204.76190476190476,-13.166666666666666,228.57142857142858,-14C252.3809523809524,-14.833333333333334,261.9047619047619,19.166666666666668,285.7142857142857,20C309.5238095238095,20.833333333333332,319.0476190476191,-16.25,342.8571428571429,-10C366.6666666666667,-3.75,376.1904761904762,51.458333333333336,400,50C423.8095238095238,48.541666666666664,433.33333333333337,-17.833333333333332,457.14285714285717,-17C480.95238095238096,-16.166666666666668,490.47619047619054,50.875,514.2857142857143,54C538.0952380952382,57.125,547.6190476190477,0.08333333333333348,571.4285714285714,-2C595.2380952380952,-4.083333333333334,604.7619047619047,41.291666666666664,628.5714285714286,44C652.3809523809524,46.708333333333336,661.9047619047619,11.625,685.7142857142858,11C709.5238095238096,10.375,719.047619047619,41.625,742.8571428571429,41C766.6666666666667,40.375,788.0952380952381,14.875,800,8" transform="matrix(1,0,0,1,0,918)"></path><path d="M10,10C19.821428571428573,13.125,35.41666666666667,33.333333333333336,57.142857142857146,25C78.86904761904762,16.666666666666664,90.47619047619048,-29.791666666666668,114.28571428571429,-30C138.0952380952381,-30.208333333333332,147.61904761904765,20.666666666666668,171.42857142857144,24C195.23809523809524,27.333333333333332,204.76190476190476,-13.166666666666666,228.57142857142858,-14C252.3809523809524,-14.833333333333334,261.9047619047619,19.166666666666668,285.7142857142857,20C309.5238095238095,20.833333333333332,319.0476190476191,-16.25,342.8571428571429,-10C366.6666666666667,-3.75,376.1904761904762,51.458333333333336,400,50C423.8095238095238,48.541666666666664,433.33333333333337,-17.833333333333332,457.14285714285717,-17C480.95238095238096,-16.166666666666668,490.47619047619054,50.875,514.2857142857143,54C538.0952380952382,57.125,547.6190476190477,0.08333333333333348,571.4285714285714,-2C595.2380952380952,-4.083333333333334,604.7619047619047,41.291666666666664,628.5714285714286,44C652.3809523809524,46.708333333333336,661.9047619047619,11.625,685.7142857142858,11C709.5238095238096,10.375,719.047619047619,41.625,742.8571428571429,41C766.6666666666667,40.375,788.0952380952381,14.875,800,8" transform="matrix(1,0,0,1,0,867)"></path><path d="M10,10C19.821428571428573,13.125,35.41666666666667,33.333333333333336,57.142857142857146,25C78.86904761904762,16.666666666666664,90.47619047619048,-29.791666666666668,114.28571428571429,-30C138.0952380952381,-30.208333333333332,147.61904761904765,20.666666666666668,171.42857142857144,24C195.23809523809524,27.333333333333332,204.76190476190476,-13.166666666666666,228.57142857142858,-14C252.3809523809524,-14.833333333333334,261.9047619047619,19.166666666666668,285.7142857142857,20C309.5238095238095,20.833333333333332,319.0476190476191,-16.25,342.8571428571429,-10C366.6666666666667,-3.75,376.1904761904762,51.458333333333336,400,50C423.8095238095238,48.541666666666664,433.33333333333337,-17.833333333333332,457.14285714285717,-17C480.95238095238096,-16.166666666666668,490.47619047619054,50.875,514.2857142857143,54C538.0952380952382,57.125,547.6190476190477,0.08333333333333348,571.4285714285714,-2C595.2380952380952,-4.083333333333334,604.7619047619047,41.291666666666664,628.5714285714286,44C652.3809523809524,46.708333333333336,661.9047619047619,11.625,685.7142857142858,11C709.5238095238096,10.375,719.047619047619,41.625,742.8571428571429,41C766.6666666666667,40.375,788.0952380952381,14.875,800,8" transform="matrix(1,0,0,1,0,816)"></path><path d="M10,10C19.821428571428573,13.125,35.41666666666667,33.333333333333336,57.142857142857146,25C78.86904761904762,16.666666666666664,90.47619047619048,-29.791666666666668,114.28571428571429,-30C138.0952380952381,-30.208333333333332,147.61904761904765,20.666666666666668,171.42857142857144,24C195.23809523809524,27.333333333333332,204.76190476190476,-13.166666666666666,228.57142857142858,-14C252.3809523809524,-14.833333333333334,261.9047619047619,19.166666666666668,285.7142857142857,20C309.5238095238095,20.833333333333332,319.0476190476191,-16.25,342.8571428571429,-10C366.6666666666667,-3.75,376.1904761904762,51.458333333333336,400,50C423.8095238095238,48.541666666666664,433.33333333333337,-17.833333333333332,457.14285714285717,-17C480.95238095238096,-16.166666666666668,490.47619047619054,50.875,514.2857142857143,54C538.0952380952382,57.125,547.6190476190477,0.08333333333333348,571.4285714285714,-2C595.2380952380952,-4.083333333333334,604.7619047619047,41.291666666666664,628.5714285714286,44C652.3809523809524,46.708333333333336,661.9047619047619,11.625,685.7142857142858,11C709.5238095238096,10.375,719.047619047619,41.625,742.8571428571429,41C766.6666666666667,40.375,788.0952380952381,14.875,800,8" transform="matrix(1,0,0,1,0,765)"></path><path d="M10,10C19.821428571428573,13.125,35.41666666666667,33.333333333333336,57.142857142857146,25C78.86904761904762,16.666666666666664,90.47619047619048,-29.791666666666668,114.28571428571429,-30C138.0952380952381,-30.208333333333332,147.61904761904765,20.666666666666668,171.42857142857144,24C195.23809523809524,27.333333333333332,204.76190476190476,-13.166666666666666,228.57142857142858,-14C252.3809523809524,-14.833333333333334,261.9047619047619,19.166666666666668,285.7142857142857,20C309.5238095238095,20.833333333333332,319.0476190476191,-16.25,342.8571428571429,-10C366.6666666666667,-3.75,376.1904761904762,51.458333333333336,400,50C423.8095238095238,48.541666666666664,433.33333333333337,-17.833333333333332,457.14285714285717,-17C480.95238095238096,-16.166666666666668,490.47619047619054,50.875,514.2857142857143,54C538.0952380952382,57.125,547.6190476190477,0.08333333333333348,571.4285714285714,-2C595.2380952380952,-4.083333333333334,604.7619047619047,41.291666666666664,628.5714285714286,44C652.3809523809524,46.708333333333336,661.9047619047619,11.625,685.7142857142858,11C709.5238095238096,10.375,719.047619047619,41.625,742.8571428571429,41C766.6666666666667,40.375,788.0952380952381,14.875,800,8" transform="matrix(1,0,0,1,0,714)"></path><path d="M10,10C19.821428571428573,13.125,35.41666666666667,33.333333333333336,57.142857142857146,25C78.86904761904762,16.666666666666664,90.47619047619048,-29.791666666666668,114.28571428571429,-30C138.0952380952381,-30.208333333333332,147.61904761904765,20.666666666666668,171.42857142857144,24C195.23809523809524,27.333333333333332,204.76190476190476,-13.166666666666666,228.57142857142858,-14C252.3809523809524,-14.833333333333334,261.9047619047619,19.166666666666668,285.7142857142857,20C309.5238095238095,20.833333333333332,319.0476190476191,-16.25,342.8571428571429,-10C366.6666666666667,-3.75,376.1904761904762,51.458333333333336,400,50C423.8095238095238,48.541666666666664,433.33333333333337,-17.833333333333332,457.14285714285717,-17C480.95238095238096,-16.166666666666668,490.47619047619054,50.875,514.2857142857143,54C538.0952380952382,57.125,547.6190476190477,0.08333333333333348,571.4285714285714,-2C595.2380952380952,-4.083333333333334,604.7619047619047,41.291666666666664,628.5714285714286,44C652.3809523809524,46.708333333333336,661.9047619047619,11.625,685.7142857142858,11C709.5238095238096,10.375,719.047619047619,41.625,742.8571428571429,41C766.6666666666667,40.375,788.0952380952381,14.875,800,8" transform="matrix(1,0,0,1,0,663)"></path><path d="M10,10C19.821428571428573,13.125,35.41666666666667,33.333333333333336,57.142857142857146,25C78.86904761904762,16.666666666666664,90.47619047619048,-29.791666666666668,114.28571428571429,-30C138.0952380952381,-30.208333333333332,147.61904761904765,20.666666666666668,171.42857142857144,24C195.23809523809524,27.333333333333332,204.76190476190476,-13.166666666666666,228.57142857142858,-14C252.3809523809524,-14.833333333333334,261.9047619047619,19.166666666666668,285.7142857142857,20C309.5238095238095,20.833333333333332,319.0476190476191,-16.25,342.8571428571429,-10C366.6666666666667,-3.75,376.1904761904762,51.458333333333336,400,50C423.8095238095238,48.541666666666664,433.33333333333337,-17.833333333333332,457.14285714285717,-17C480.95238095238096,-16.166666666666668,490.47619047619054,50.875,514.2857142857143,54C538.0952380952382,57.125,547.6190476190477,0.08333333333333348,571.4285714285714,-2C595.2380952380952,-4.083333333333334,604.7619047619047,41.291666666666664,628.5714285714286,44C652.3809523809524,46.708333333333336,661.9047619047619,11.625,685.7142857142858,11C709.5238095238096,10.375,719.047619047619,41.625,742.8571428571429,41C766.6666666666667,40.375,788.0952380952381,14.875,800,8" transform="matrix(1,0,0,1,0,612)"></path><path d="M10,10C19.821428571428573,13.125,35.41666666666667,33.333333333333336,57.142857142857146,25C78.86904761904762,16.666666666666664,90.47619047619048,-29.791666666666668,114.28571428571429,-30C138.0952380952381,-30.208333333333332,147.61904761904765,20.666666666666668,171.42857142857144,24C195.23809523809524,27.333333333333332,204.76190476190476,-13.166666666666666,228.57142857142858,-14C252.3809523809524,-14.833333333333334,261.9047619047619,19.166666666666668,285.7142857142857,20C309.5238095238095,20.833333333333332,319.0476190476191,-16.25,342.8571428571429,-10C366.6666666666667,-3.75,376.1904761904762,51.458333333333336,400,50C423.8095238095238,48.541666666666664,433.33333333333337,-17.833333333333332,457.14285714285717,-17C480.95238095238096,-16.166666666666668,490.47619047619054,50.875,514.2857142857143,54C538.0952380952382,57.125,547.6190476190477,0.08333333333333348,571.4285714285714,-2C595.2380952380952,-4.083333333333334,604.7619047619047,41.291666666666664,628.5714285714286,44C652.3809523809524,46.708333333333336,661.9047619047619,11.625,685.7142857142858,11C709.5238095238096,10.375,719.047619047619,41.625,742.8571428571429,41C766.6666666666667,40.375,788.0952380952381,14.875,800,8" transform="matrix(1,0,0,1,0,561)"></path><path d="M10,10C19.821428571428573,13.125,35.41666666666667,33.333333333333336,57.142857142857146,25C78.86904761904762,16.666666666666664,90.47619047619048,-29.791666666666668,114.28571428571429,-30C138.0952380952381,-30.208333333333332,147.61904761904765,20.666666666666668,171.42857142857144,24C195.23809523809524,27.333333333333332,204.76190476190476,-13.166666666666666,228.57142857142858,-14C252.3809523809524,-14.833333333333334,261.9047619047619,19.166666666666668,285.7142857142857,20C309.5238095238095,20.833333333333332,319.0476190476191,-16.25,342.8571428571429,-10C366.6666666666667,-3.75,376.1904761904762,51.458333333333336,400,50C423.8095238095238,48.541666666666664,433.33333333333337,-17.833333333333332,457.14285714285717,-17C480.95238095238096,-16.166666666666668,490.47619047619054,50.875,514.2857142857143,54C538.0952380952382,57.125,547.6190476190477,0.08333333333333348,571.4285714285714,-2C595.2380952380952,-4.083333333333334,604.7619047619047,41.291666666666664,628.5714285714286,44C652.3809523809524,46.708333333333336,661.9047619047619,11.625,685.7142857142858,11C709.5238095238096,10.375,719.047619047619,41.625,742.8571428571429,41C766.6666666666667,40.375,788.0952380952381,14.875,800,8" transform="matrix(1,0,0,1,0,510)"></path><path d="M10,10C19.821428571428573,13.125,35.41666666666667,33.333333333333336,57.142857142857146,25C78.86904761904762,16.666666666666664,90.47619047619048,-29.791666666666668,114.28571428571429,-30C138.0952380952381,-30.208333333333332,147.61904761904765,20.666666666666668,171.42857142857144,24C195.23809523809524,27.333333333333332,204.76190476190476,-13.166666666666666,228.57142857142858,-14C252.3809523809524,-14.833333333333334,261.9047619047619,19.166666666666668,285.7142857142857,20C309.5238095238095,20.833333333333332,319.0476190476191,-16.25,342.8571428571429,-10C366.6666666666667,-3.75,376.1904761904762,51.458333333333336,400,50C423.8095238095238,48.541666666666664,433.33333333333337,-17.833333333333332,457.14285714285717,-17C480.95238095238096,-16.166666666666668,490.47619047619054,50.875,514.2857142857143,54C538.0952380952382,57.125,547.6190476190477,0.08333333333333348,571.4285714285714,-2C595.2380952380952,-4.083333333333334,604.7619047619047,41.291666666666664,628.5714285714286,44C652.3809523809524,46.708333333333336,661.9047619047619,11.625,685.7142857142858,11C709.5238095238096,10.375,719.047619047619,41.625,742.8571428571429,41C766.6666666666667,40.375,788.0952380952381,14.875,800,8" transform="matrix(1,0,0,1,0,459)"></path><path d="M10,10C19.821428571428573,13.125,35.41666666666667,33.333333333333336,57.142857142857146,25C78.86904761904762,16.666666666666664,90.47619047619048,-29.791666666666668,114.28571428571429,-30C138.0952380952381,-30.208333333333332,147.61904761904765,20.666666666666668,171.42857142857144,24C195.23809523809524,27.333333333333332,204.76190476190476,-13.166666666666666,228.57142857142858,-14C252.3809523809524,-14.833333333333334,261.9047619047619,19.166666666666668,285.7142857142857,20C309.5238095238095,20.833333333333332,319.0476190476191,-16.25,342.8571428571429,-10C366.6666666666667,-3.75,376.1904761904762,51.458333333333336,400,50C423.8095238095238,48.541666666666664,433.33333333333337,-17.833333333333332,457.14285714285717,-17C480.95238095238096,-16.166666666666668,490.47619047619054,50.875,514.2857142857143,54C538.0952380952382,57.125,547.6190476190477,0.08333333333333348,571.4285714285714,-2C595.2380952380952,-4.083333333333334,604.7619047619047,41.291666666666664,628.5714285714286,44C652.3809523809524,46.708333333333336,661.9047619047619,11.625,685.7142857142858,11C709.5238095238096,10.375,719.047619047619,41.625,742.8571428571429,41C766.6666666666667,40.375,788.0952380952381,14.875,800,8" transform="matrix(1,0,0,1,0,408)"></path><path d="M10,10C19.821428571428573,13.125,35.41666666666667,33.333333333333336,57.142857142857146,25C78.86904761904762,16.666666666666664,90.47619047619048,-29.791666666666668,114.28571428571429,-30C138.0952380952381,-30.208333333333332,147.61904761904765,20.666666666666668,171.42857142857144,24C195.23809523809524,27.333333333333332,204.76190476190476,-13.166666666666666,228.57142857142858,-14C252.3809523809524,-14.833333333333334,261.9047619047619,19.166666666666668,285.7142857142857,20C309.5238095238095,20.833333333333332,319.0476190476191,-16.25,342.8571428571429,-10C366.6666666666667,-3.75,376.1904761904762,51.458333333333336,400,50C423.8095238095238,48.541666666666664,433.33333333333337,-17.833333333333332,457.14285714285717,-17C480.95238095238096,-16.166666666666668,490.47619047619054,50.875,514.2857142857143,54C538.0952380952382,57.125,547.6190476190477,0.08333333333333348,571.4285714285714,-2C595.2380952380952,-4.083333333333334,604.7619047619047,41.291666666666664,628.5714285714286,44C652.3809523809524,46.708333333333336,661.9047619047619,11.625,685.7142857142858,11C709.5238095238096,10.375,719.047619047619,41.625,742.8571428571429,41C766.6666666666667,40.375,788.0952380952381,14.875,800,8" transform="matrix(1,0,0,1,0,357)"></path><path d="M10,10C19.821428571428573,13.125,35.41666666666667,33.333333333333336,57.142857142857146,25C78.86904761904762,16.666666666666664,90.47619047619048,-29.791666666666668,114.28571428571429,-30C138.0952380952381,-30.208333333333332,147.61904761904765,20.666666666666668,171.42857142857144,24C195.23809523809524,27.333333333333332,204.76190476190476,-13.166666666666666,228.57142857142858,-14C252.3809523809524,-14.833333333333334,261.9047619047619,19.166666666666668,285.7142857142857,20C309.5238095238095,20.833333333333332,319.0476190476191,-16.25,342.8571428571429,-10C366.6666666666667,-3.75,376.1904761904762,51.458333333333336,400,50C423.8095238095238,48.541666666666664,433.33333333333337,-17.833333333333332,457.14285714285717,-17C480.95238095238096,-16.166666666666668,490.47619047619054,50.875,514.2857142857143,54C538.0952380952382,57.125,547.6190476190477,0.08333333333333348,571.4285714285714,-2C595.2380952380952,-4.083333333333334,604.7619047619047,41.291666666666664,628.5714285714286,44C652.3809523809524,46.708333333333336,661.9047619047619,11.625,685.7142857142858,11C709.5238095238096,10.375,719.047619047619,41.625,742.8571428571429,41C766.6666666666667,40.375,788.0952380952381,14.875,800,8" transform="matrix(1,0,0,1,0,306)"></path><path d="M10,10C19.821428571428573,13.125,35.41666666666667,33.333333333333336,57.142857142857146,25C78.86904761904762,16.666666666666664,90.47619047619048,-29.791666666666668,114.28571428571429,-30C138.0952380952381,-30.208333333333332,147.61904761904765,20.666666666666668,171.42857142857144,24C195.23809523809524,27.333333333333332,204.76190476190476,-13.166666666666666,228.57142857142858,-14C252.3809523809524,-14.833333333333334,261.9047619047619,19.166666666666668,285.7142857142857,20C309.5238095238095,20.833333333333332,319.0476190476191,-16.25,342.8571428571429,-10C366.6666666666667,-3.75,376.1904761904762,51.458333333333336,400,50C423.8095238095238,48.541666666666664,433.33333333333337,-17.833333333333332,457.14285714285717,-17C480.95238095238096,-16.166666666666668,490.47619047619054,50.875,514.2857142857143,54C538.0952380952382,57.125,547.6190476190477,0.08333333333333348,571.4285714285714,-2C595.2380952380952,-4.083333333333334,604.7619047619047,41.291666666666664,628.5714285714286,44C652.3809523809524,46.708333333333336,661.9047619047619,11.625,685.7142857142858,11C709.5238095238096,10.375,719.047619047619,41.625,742.8571428571429,41C766.6666666666667,40.375,788.0952380952381,14.875,800,8" transform="matrix(1,0,0,1,0,255)"></path><path d="M10,10C19.821428571428573,13.125,35.41666666666667,33.333333333333336,57.142857142857146,25C78.86904761904762,16.666666666666664,90.47619047619048,-29.791666666666668,114.28571428571429,-30C138.0952380952381,-30.208333333333332,147.61904761904765,20.666666666666668,171.42857142857144,24C195.23809523809524,27.333333333333332,204.76190476190476,-13.166666666666666,228.57142857142858,-14C252.3809523809524,-14.833333333333334,261.9047619047619,19.166666666666668,285.7142857142857,20C309.5238095238095,20.833333333333332,319.0476190476191,-16.25,342.8571428571429,-10C366.6666666666667,-3.75,376.1904761904762,51.458333333333336,400,50C423.8095238095238,48.541666666666664,433.33333333333337,-17.833333333333332,457.14285714285717,-17C480.95238095238096,-16.166666666666668,490.47619047619054,50.875,514.2857142857143,54C538.0952380952382,57.125,547.6190476190477,0.08333333333333348,571.4285714285714,-2C595.2380952380952,-4.083333333333334,604.7619047619047,41.291666666666664,628.5714285714286,44C652.3809523809524,46.708333333333336,661.9047619047619,11.625,685.7142857142858,11C709.5238095238096,10.375,719.047619047619,41.625,742.8571428571429,41C766.6666666666667,40.375,788.0952380952381,14.875,800,8" transform="matrix(1,0,0,1,0,204)"></path><path d="M10,10C19.821428571428573,13.125,35.41666666666667,33.333333333333336,57.142857142857146,25C78.86904761904762,16.666666666666664,90.47619047619048,-29.791666666666668,114.28571428571429,-30C138.0952380952381,-30.208333333333332,147.61904761904765,20.666666666666668,171.42857142857144,24C195.23809523809524,27.333333333333332,204.76190476190476,-13.166666666666666,228.57142857142858,-14C252.3809523809524,-14.833333333333334,261.9047619047619,19.166666666666668,285.7142857142857,20C309.5238095238095,20.833333333333332,319.0476190476191,-16.25,342.8571428571429,-10C366.6666666666667,-3.75,376.1904761904762,51.458333333333336,400,50C423.8095238095238,48.541666666666664,433.33333333333337,-17.833333333333332,457.14285714285717,-17C480.95238095238096,-16.166666666666668,490.47619047619054,50.875,514.2857142857143,54C538.0952380952382,57.125,547.6190476190477,0.08333333333333348,571.4285714285714,-2C595.2380952380952,-4.083333333333334,604.7619047619047,41.291666666666664,628.5714285714286,44C652.3809523809524,46.708333333333336,661.9047619047619,11.625,685.7142857142858,11C709.5238095238096,10.375,719.047619047619,41.625,742.8571428571429,41C766.6666666666667,40.375,788.0952380952381,14.875,800,8" transform="matrix(1,0,0,1,0,153)"></path><path d="M10,10C19.821428571428573,13.125,35.41666666666667,33.333333333333336,57.142857142857146,25C78.86904761904762,16.666666666666664,90.47619047619048,-29.791666666666668,114.28571428571429,-30C138.0952380952381,-30.208333333333332,147.61904761904765,20.666666666666668,171.42857142857144,24C195.23809523809524,27.333333333333332,204.76190476190476,-13.166666666666666,228.57142857142858,-14C252.3809523809524,-14.833333333333334,261.9047619047619,19.166666666666668,285.7142857142857,20C309.5238095238095,20.833333333333332,319.0476190476191,-16.25,342.8571428571429,-10C366.6666666666667,-3.75,376.1904761904762,51.458333333333336,400,50C423.8095238095238,48.541666666666664,433.33333333333337,-17.833333333333332,457.14285714285717,-17C480.95238095238096,-16.166666666666668,490.47619047619054,50.875,514.2857142857143,54C538.0952380952382,57.125,547.6190476190477,0.08333333333333348,571.4285714285714,-2C595.2380952380952,-4.083333333333334,604.7619047619047,41.291666666666664,628.5714285714286,44C652.3809523809524,46.708333333333336,661.9047619047619,11.625,685.7142857142858,11C709.5238095238096,10.375,719.047619047619,41.625,742.8571428571429,41C766.6666666666667,40.375,788.0952380952381,14.875,800,8" transform="matrix(1,0,0,1,0,102)"></path><path d="M10,10C19.821428571428573,13.125,35.41666666666667,33.333333333333336,57.142857142857146,25C78.86904761904762,16.666666666666664,90.47619047619048,-29.791666666666668,114.28571428571429,-30C138.0952380952381,-30.208333333333332,147.61904761904765,20.666666666666668,171.42857142857144,24C195.23809523809524,27.333333333333332,204.76190476190476,-13.166666666666666,228.57142857142858,-14C252.3809523809524,-14.833333333333334,261.9047619047619,19.166666666666668,285.7142857142857,20C309.5238095238095,20.833333333333332,319.0476190476191,-16.25,342.8571428571429,-10C366.6666666666667,-3.75,376.1904761904762,51.458333333333336,400,50C423.8095238095238,48.541666666666664,433.33333333333337,-17.833333333333332,457.14285714285717,-17C480.95238095238096,-16.166666666666668,490.47619047619054,50.875,514.2857142857143,54C538.0952380952382,57.125,547.6190476190477,0.08333333333333348,571.4285714285714,-2C595.2380952380952,-4.083333333333334,604.7619047619047,41.291666666666664,628.5714285714286,44C652.3809523809524,46.708333333333336,661.9047619047619,11.625,685.7142857142858,11C709.5238095238096,10.375,719.047619047619,41.625,742.8571428571429,41C766.6666666666667,40.375,788.0952380952381,14.875,800,8" transform="matrix(1,0,0,1,0,51)"></path></g></svg>